{"title":"Blackmail(1929)MP-4[DaScubaDude]","uid":12607643,"size":848664694,"categoryP":"video","categoryS":"movies","magnet":"?xt=urn:btih:6c59a6e040b94e56c57ca02994a4c5440e983249&amp;dn=Blackmail%281929%29MP-4%5BDaScubaDude%5D&amp;tr=udp%3A%2F%2Ftracker.leechers-paradise.org%3A6969&amp;tr=udp%3A%2F%2Fzer0day.ch%3A1337&amp;tr=udp%3A%2F%2Fopen.demonii.com%3A1337&amp;tr=udp%3A%2F%2Ftracker.coppersurfer.tk%3A6969&amp;tr=udp%3A%2F%2Fexodus.desync.com%3A6969","seeders":2,"leechers":0,"uploader":"dascuba","files":1,"time":1445413550,"description":"Blackmail (1929)\r\n85 min  |  Crime, Thriller  |  6 October 1929 (USA)\r\n7.0 Your rating:   -/10   Ratings: 7.0/10 from 6,769 users   \r\nReviews: 74 user | 51 critic\r\nAlice White is the daughter of a shopkeeper in 1920's London. Her boyfriend, Frank Webber is a Scotland Yard detective who seems more interested in police work than in her. Frank takes ... See full summary »\r\n\r\nDirector: Alfred Hitchcock\r\nWriters: Charles Bennett (from the play by), Alfred Hitchcock (adapted by), 2 more credits »\r\nStars: Anny Ondra, John Longden, Sara Allgood\r\n\r\nGeneral\r\nComplete name                            : C:BlackmailBLACKMAIL_Title2.mp4\r\nFormat                                   : MPEG-4\r\nFormat profile                           : Base Media\r\nCodec ID                                 : isom\r\nFile size                                : 809 MiB\r\nDuration                                 : 1h 25mn\r\nOverall bit rate                         : 1 330 Kbps\r\nMovie name                               : BLACKMAIL\r\nGenre                                    : Classic_Mystery\r\nWriting application                      : Lavf54.6.100\r\n\r\nVideo\r\nID                                       : 1\r\nFormat                                   : AVC\r\nFormat/Info                              : Advanced Video Codec\r\nFormat profile                           :   \r\nFormat settings, CABAC                   : No\r\nFormat settings, ReFrames                : 6 frames\r\nFormat settings, GOP                     : M=1, N=60\r\nCodec ID                                 : avc1\r\nCodec ID/Info                            : Advanced Video Coding\r\nDuration                                 : 1h 25mn\r\nBit rate                                 : 1 195 Kbps\r\nWidth                                    : 720 pixels\r\nHeight                                   : 540 pixels\r\nDisplay aspect ratio                     : 4:3\r\nFrame rate mode                          : Constant\r\nFrame rate                               : 29.970 fps\r\nColor space                              : YUV\r\nChroma subsampling                       : 4:2:0\r\nBit depth                                : 8 bits\r\nScan type                                : Progressive\r\nBits/(Pixel*Frame)                       : 0.103\r\nStream size                              : 727 MiB (90%)\r\n\r\nAudio\r\nID                                       : 2\r\nFormat                                   : AAC\r\nFormat/Info                              : Advanced Audio Codec\r\nFormat profile                           : LC\r\nCodec ID                                 : 40\r\nDuration                                 : 1h 25mn\r\nBit rate mode                            : Constant\r\nBit rate                                 : 128 Kbps\r\nChannel(s)                               : 2 channels\r\nChannel positions                        : Front: L R\r\nSampling rate                            : 44.1 KHz\r\nCompression mode                         : Lossy\r\nStream size                              : 78.2 MiB (10%)","torrent":{"xt":"urn:btih:6c59a6e040b94e56c57ca02994a4c5440e983249","amp;dn":"Blackmail%281929%29MP-4%5BDaScubaDude%5D","amp;tr":["udp%3A%2F%2Ftracker.leechers-paradise.org%3A6969","udp%3A%2F%2Fzer0day.ch%3A1337","udp%3A%2F%2Fopen.demonii.com%3A1337","udp%3A%2F%2Ftracker.coppersurfer.tk%3A6969","udp%3A%2F%2Fexodus.desync.com%3A6969"],"infoHash":"6c59a6e040b94e56c57ca02994a4c5440e983249","infoHashBuffer":{"type":"Buffer","data":[108,89,166,224,64,185,78,86,197,124,160,41,148,164,197,68,14,152,50,73]},"announce":[],"urlList":[]}}